<?xml version="1.0" encoding="iso-8859-1"?>
<!-- Generator: Adobe Illustrator 16.0.0, SVG Export Plug-In . SVG Version: 6.00 Build 0)  -->
<!DOCTYPE svg PUBLIC "-//W3C//DTD SVG 1.1//EN" "http://www.w3.org/Graphics/SVG/1.1/DTD/svg11.dtd">
<svg version="1.1" id="Capa_1" xmlns="http://www.w3.org/2000/svg" xmlns:xlink="http://www.w3.org/1999/xlink" x="0px" y="0px"
	 width="49px" height="49px" viewBox="0 0 49 49" style="enable-background:new 0 0 49 49;" xml:space="preserve">
<g>
	<path d="M6.15,15.361l-0.539-1.433h6.642l0.539,1.433H6.15z M43.957,33.592l1.15,1.48H2.291l1.186-1.549L0,26.239h2.978v-2.864
		l0.168-0.249h0.751v-2.808l0.143-0.215h3.895l-0.569-1.518h6.641l0.569,1.518h21.391l2.896,3.022h1.169l2.983,3.113H49
		L43.957,33.592z M6.063,28.145H3.891v1.793h2.172V28.145z M8.929,28.145h-2.17v1.793h2.17V28.145z M11.797,28.145H9.626v1.793
		h2.171V28.145z M14.664,28.145h-2.172v1.793h2.172V28.145z M17.53,28.145h-2.17v1.793h2.17V28.145z M20.397,28.145h-2.17v1.793
		h2.17V28.145z M23.264,28.145h-2.17v1.793h2.17V28.145z M26.13,28.145h-2.17v1.793h2.17V28.145z M28.998,28.145h-2.171v1.793h2.171
		V28.145z M31.863,28.145h-2.168v1.793h2.168V28.145z M34.73,28.145h-2.17v1.793h2.17V28.145z M37.6,28.145h-2.172v1.793H37.6
		V28.145z M40.466,28.145h-2.172v1.793h2.172V28.145z M43.332,28.145h-2.17v1.793h2.17V28.145z M7.049,17.75h6.64l-0.582-1.553
		H6.466L7.049,17.75z"/>
</g>
<g>
</g>
<g>
</g>
<g>
</g>
<g>
</g>
<g>
</g>
<g>
</g>
<g>
</g>
<g>
</g>
<g>
</g>
<g>
</g>
<g>
</g>
<g>
</g>
<g>
</g>
<g>
</g>
<g>
</g>
</svg>
