<?xml version="1.0" encoding="iso-8859-1"?>
<!-- Generator: Adobe Illustrator 16.0.0, SVG Export Plug-In . SVG Version: 6.00 Build 0)  -->
<!DOCTYPE svg PUBLIC "-//W3C//DTD SVG 1.1//EN" "http://www.w3.org/Graphics/SVG/1.1/DTD/svg11.dtd">
<svg version="1.1" id="Capa_1" xmlns="http://www.w3.org/2000/svg" xmlns:xlink="http://www.w3.org/1999/xlink" x="0px" y="0px"
	 width="49px" height="49px" viewBox="0 0 49 49" style="enable-background:new 0 0 49 49;" xml:space="preserve">
<g>
	<path d="M38.494,0H8.155v3.277H6.232V49h29.484c1.209,0,2.267-0.631,2.875-1.579c2.313-0.05,4.176-1.938,4.176-4.263V4.271
		C42.769,1.917,40.853,0,38.494,0z M17.874,26.282h4.309v6.022C20.339,31.943,18.763,29.617,17.874,26.282z M19.666,31.975
		c-3.221-0.817-5.929-2.897-7.569-5.691h4.719C17.437,28.766,18.426,30.749,19.666,31.975z M17.63,25.277
		c-0.304-1.434-0.485-3.017-0.516-4.687h5.066v4.687H17.63z M17.118,19.585c0.031-1.672,0.212-3.253,0.516-4.688h4.551v4.688H17.118
		z M17.874,13.893c0.889-3.335,2.468-5.665,4.309-6.025v6.025H17.874z M16.814,13.893h-4.719c1.641-2.794,4.349-4.877,7.569-5.694
		C18.426,9.43,17.437,11.409,16.814,13.893z M16.588,14.896c-0.286,1.436-0.448,3.015-0.477,4.687h-5.676
		c0.066-1.672,0.465-3.252,1.137-4.687H16.588z M16.11,20.588c0.029,1.674,0.19,3.252,0.476,4.688h-5.017
		c-0.672-1.434-1.07-3.018-1.137-4.688H16.11z M15.697,41.659c-0.131,0.159-0.348,0.282-0.649,0.37
		c-0.305,0.087-0.621,0.13-0.951,0.13h-1.855v2.05h-1.222v-6.355h2.782c0.499,0,0.926,0.045,1.282,0.141
		c0.355,0.094,0.618,0.301,0.786,0.623c0.151,0.354,0.229,0.818,0.229,1.39C16.096,40.787,15.962,41.338,15.697,41.659z
		 M21.162,44.209l-0.404-1.198h-2.756l-0.408,1.198h-1.262l1.457-4.41l0.662-1.949h1.788l2.169,6.359H21.162z M27.662,43.309
		c-0.101,0.273-0.248,0.48-0.438,0.621c-0.298,0.221-0.904,0.33-1.822,0.33h-0.459c-0.407,0-0.758-0.025-1.053-0.066
		c-0.294-0.043-0.545-0.156-0.75-0.33c-0.152-0.135-0.265-0.28-0.334-0.451c-0.07-0.168-0.113-0.34-0.128-0.521
		c-0.016-0.18-0.024-0.408-0.024-0.699h1.214c0,0.072-0.005,0.132-0.016,0.179c0.009,0.194,0.026,0.342,0.05,0.444
		c0.024,0.104,0.071,0.187,0.144,0.248c0.082,0.076,0.19,0.127,0.324,0.151c0.137,0.026,0.327,0.042,0.574,0.052
		c0.119,0,0.206,0.008,0.263,0.02c0.309-0.016,0.542-0.032,0.702-0.051c0.155-0.018,0.286-0.061,0.391-0.118
		c0.189-0.113,0.283-0.382,0.283-0.796c0-0.295-0.06-0.504-0.18-0.631c-0.043-0.039-0.097-0.072-0.167-0.102
		c-0.065-0.025-0.133-0.042-0.202-0.054c-0.066-0.007-0.154-0.017-0.258-0.023c-0.104-0.006-0.225-0.015-0.354-0.021
		c-0.229-0.01-0.441-0.018-0.642-0.03c-0.2-0.006-0.392-0.022-0.571-0.043c-0.18-0.021-0.358-0.063-0.538-0.118
		c-0.178-0.057-0.326-0.131-0.446-0.221c-0.333-0.245-0.513-0.708-0.535-1.391c0-0.715,0.161-1.213,0.482-1.494
		c0.335-0.266,0.967-0.398,1.9-0.398c0.567,0,0.967,0.016,1.211,0.036c0.391,0.051,0.688,0.161,0.891,0.331
		c0.215,0.174,0.352,0.381,0.408,0.628c0.062,0.247,0.094,0.554,0.094,0.931h-1.229v-0.257c0-0.237-0.04-0.399-0.127-0.489
		c-0.101-0.115-0.354-0.172-0.76-0.172h-0.501c-0.484,0-0.797,0.055-0.94,0.172c-0.075,0.057-0.129,0.129-0.164,0.227
		c-0.032,0.094-0.05,0.232-0.05,0.417c0.011,0.211,0.029,0.364,0.056,0.458c0.025,0.095,0.088,0.168,0.19,0.222
		c0.083,0.045,0.185,0.08,0.309,0.104c0.122,0.024,0.266,0.039,0.432,0.054c0.167,0.01,0.323,0.021,0.473,0.03
		c0.505,0.033,0.921,0.07,1.246,0.119c0.324,0.051,0.578,0.138,0.748,0.271c0.106,0.084,0.19,0.187,0.251,0.306
		s0.105,0.244,0.133,0.375c0.025,0.129,0.043,0.243,0.049,0.336c0.006,0.094,0.013,0.252,0.021,0.478
		C27.812,42.725,27.763,43.034,27.662,43.309z M25.703,8.199c3.221,0.817,5.928,2.898,7.566,5.694h-4.717
		C27.937,11.409,26.943,9.43,25.703,8.199z M33.271,26.282c-1.64,2.794-4.347,4.877-7.567,5.69c1.241-1.229,2.233-3.207,2.852-5.69
		H33.271z M27.498,13.893h-4.31V7.868C25.03,8.229,26.606,10.558,27.498,13.893z M27.738,14.896
		c0.307,1.435,0.487,3.017,0.518,4.687h-5.066v-4.687H27.738z M28.252,20.588c-0.03,1.672-0.213,3.254-0.518,4.688h-4.549v-4.688
		H28.252z M27.498,26.282c-0.892,3.335-2.468,5.661-4.31,6.022v-6.022H27.498z M33.373,43.309c-0.102,0.273-0.248,0.48-0.437,0.621
		c-0.298,0.221-0.905,0.33-1.823,0.33h-0.457c-0.406,0-0.758-0.025-1.056-0.066c-0.293-0.043-0.544-0.156-0.751-0.33
		c-0.15-0.135-0.26-0.28-0.33-0.451c-0.07-0.168-0.111-0.34-0.131-0.521c-0.014-0.18-0.021-0.408-0.021-0.699h1.215
		c0,0.072-0.004,0.132-0.018,0.179c0.007,0.194,0.025,0.342,0.05,0.444c0.023,0.104,0.07,0.187,0.144,0.248
		c0.08,0.076,0.188,0.127,0.324,0.151c0.133,0.026,0.326,0.042,0.57,0.052c0.119,0,0.207,0.008,0.264,0.02
		c0.312-0.016,0.541-0.032,0.699-0.051c0.154-0.018,0.287-0.061,0.393-0.118c0.187-0.113,0.281-0.382,0.281-0.796
		c0-0.295-0.061-0.504-0.178-0.631c-0.04-0.039-0.1-0.072-0.167-0.102c-0.069-0.025-0.137-0.042-0.202-0.054
		c-0.068-0.007-0.158-0.017-0.262-0.023c-0.104-0.006-0.221-0.015-0.354-0.021c-0.225-0.01-0.438-0.018-0.639-0.03
		c-0.199-0.006-0.391-0.022-0.57-0.043c-0.181-0.022-0.36-0.063-0.537-0.118c-0.18-0.057-0.326-0.131-0.444-0.221
		c-0.337-0.245-0.515-0.708-0.536-1.391c0-0.715,0.161-1.213,0.482-1.494c0.334-0.266,0.969-0.398,1.9-0.398
		c0.562,0,0.967,0.016,1.211,0.036c0.391,0.051,0.688,0.161,0.891,0.331c0.212,0.174,0.349,0.381,0.408,0.628
		c0.062,0.245,0.094,0.554,0.094,0.931h-1.231v-0.257c0-0.237-0.04-0.399-0.124-0.489c-0.1-0.115-0.354-0.172-0.765-0.172h-0.501
		c-0.482,0-0.799,0.055-0.941,0.172c-0.072,0.057-0.13,0.129-0.162,0.227c-0.035,0.094-0.048,0.232-0.048,0.417
		c0.011,0.211,0.026,0.364,0.054,0.458c0.024,0.095,0.09,0.168,0.19,0.222c0.083,0.045,0.185,0.08,0.308,0.104
		s0.268,0.039,0.435,0.054c0.166,0.01,0.321,0.021,0.471,0.03c0.505,0.033,0.919,0.07,1.246,0.119
		c0.326,0.051,0.578,0.138,0.75,0.271c0.108,0.084,0.19,0.187,0.25,0.306c0.062,0.119,0.106,0.244,0.132,0.375
		c0.025,0.129,0.04,0.243,0.049,0.336c0.004,0.094,0.01,0.252,0.021,0.478C33.523,42.725,33.475,43.034,33.373,43.309z
		 M33.799,25.277h-5.021c0.287-1.434,0.449-3.014,0.478-4.687h5.674C34.865,22.26,34.47,23.845,33.799,25.277z M29.258,19.585
		c-0.029-1.674-0.19-3.251-0.475-4.688h5.018c0.674,1.435,1.068,3.018,1.136,4.688H29.258z M41.06,43.158
		c0,1.193-0.819,2.189-1.927,2.477c0-0.02,0.004-0.037,0.004-0.054V6.695c0-1.887-1.531-3.418-3.42-3.418H9.864V1.709h28.63
		c1.416,0,2.564,1.15,2.564,2.564L41.06,43.158L41.06,43.158z M19.374,38.777l1.095,3.312h-2.195l1.095-3.312H19.374z
		 M14.756,39.205c0.09,0.167,0.134,0.447,0.134,0.848c-0.01,0.284-0.027,0.479-0.049,0.588s-0.091,0.211-0.204,0.305
		c-0.117,0.113-0.403,0.174-0.854,0.174h-1.543v-2.225h1.575c0.274,0,0.482,0.026,0.624,0.07
		C14.581,39.012,14.688,39.095,14.756,39.205z"/>
</g>
<g>
</g>
<g>
</g>
<g>
</g>
<g>
</g>
<g>
</g>
<g>
</g>
<g>
</g>
<g>
</g>
<g>
</g>
<g>
</g>
<g>
</g>
<g>
</g>
<g>
</g>
<g>
</g>
<g>
</g>
</svg>
